<svg width="1600" height="1600" viewBox="0 0 1600 1600" fill="none" xmlns="http://www.w3.org/2000/svg">
<g clip-path="url(#clip0_227_8)">
<rect width="1600" height="1600" fill="white"/>
<rect width="1600" height="1600" fill="url(#paint0_angular_227_8)"/>
<g filter="url(#filter0_b_227_8)">
<rect width="1600" height="1600" fill="white" fill-opacity="0.2"/>
</g>
<g filter="url(#filter1_i_227_8)">
<path d="M0 0H1400V0C1144.57 638.58 638.58 1144.57 0 1400V1400V0Z" fill="url(#paint1_angular_227_8)" fill-opacity="0.1"/>
</g>
<path d="M476.043 954.896C390.316 868.866 390.52 729.642 476.499 643.863L644.888 475.865C730.812 390.141 869.93 390.199 955.783 475.995L1124.29 644.393C1210.27 730.317 1210.28 869.686 1124.3 955.614L955.705 1124.11C869.676 1210.1 730.201 1209.95 644.347 1123.8L476.043 954.896Z" fill="white"/>
</g>
<defs>
<filter id="filter0_b_227_8" x="-512" y="-512" width="2624" height="2624" filterUnits="userSpaceOnUse" color-interpolation-filters="sRGB">
<feFlood flood-opacity="0" result="BackgroundImageFix"/>
<feGaussianBlur in="BackgroundImageFix" stdDeviation="256"/>
<feComposite in2="SourceAlpha" operator="in" result="effect1_backgroundBlur_227_8"/>
<feBlend mode="normal" in="SourceGraphic" in2="effect1_backgroundBlur_227_8" result="shape"/>
</filter>
<filter id="filter1_i_227_8" x="0" y="0" width="1400" height="1404" filterUnits="userSpaceOnUse" color-interpolation-filters="sRGB">
<feFlood flood-opacity="0" result="BackgroundImageFix"/>
<feBlend mode="normal" in="SourceGraphic" in2="BackgroundImageFix" result="shape"/>
<feColorMatrix in="SourceAlpha" type="matrix" values="0 0 0 0 0 0 0 0 0 0 0 0 0 0 0 0 0 0 127 0" result="hardAlpha"/>
<feOffset dy="4"/>
<feGaussianBlur stdDeviation="48"/>
<feComposite in2="hardAlpha" operator="arithmetic" k2="-1" k3="1"/>
<feColorMatrix type="matrix" values="0 0 0 0 0 0 0 0 0 0 0 0 0 0 0 0 0 0 0.1 0"/>
<feBlend mode="normal" in2="shape" result="effect1_innerShadow_227_8"/>
</filter>
<radialGradient id="paint0_angular_227_8" cx="0" cy="0" r="1" gradientUnits="userSpaceOnUse" gradientTransform="translate(800 800) rotate(90) scale(800)">
<stop stop-color="#3257EC"/>
<stop offset="0.34" stop-color="#E654D7"/>
<stop offset="0.68" stop-color="#F8A647"/>
</radialGradient>
<radialGradient id="paint1_angular_227_8" cx="0" cy="0" r="1" gradientUnits="userSpaceOnUse" gradientTransform="scale(1688.89)">
<stop stop-opacity="0"/>
<stop offset="0.25"/>
</radialGradient>
<clipPath id="clip0_227_8">
<rect width="1600" height="1600" fill="white"/>
</clipPath>
</defs>
</svg>
